<svg width="36" height="35" viewBox="0 0 36 35" fill="none" xmlns="http://www.w3.org/2000/svg">
<g clip-path="url(#clip0_109_275)">
<path d="M1.29017 17.2906C1.28935 20.2313 2.06373 23.1026 3.53619 25.6335L1.14935 34.2807L10.0678 31.9603C12.5345 33.2928 15.2983 33.991 18.1069 33.9912H18.1142C27.3858 33.9912 34.9331 26.5051 34.9371 17.3038C34.9388 12.845 33.1905 8.65238 30.014 5.49803C26.838 2.34397 22.6141 0.606039 18.1136 0.604004C8.84088 0.604004 1.29414 8.08966 1.29031 17.2906" fill="url(#paint0_linear_109_275)"/>
<path d="M0.689563 17.2851C0.688606 20.3316 1.49073 23.3057 3.0157 25.9271L0.543274 34.8843L9.7815 32.4808C12.3269 33.8579 15.1928 34.5839 18.109 34.585H18.1166C27.7208 34.585 35.5392 26.8297 35.5433 17.299C35.5449 12.68 33.7337 8.33665 30.4437 5.0693C27.1533 1.80236 22.7783 0.00189922 18.1166 0C8.51069 0 0.693391 7.75426 0.689563 17.2851ZM6.19113 25.4757L5.84618 24.9323C4.39614 22.6446 3.63079 20.0009 3.63189 17.2862C3.63503 9.3644 10.1325 2.91938 18.122 2.91938C21.9912 2.92101 25.6273 4.4176 28.3623 7.13295C31.097 9.84857 32.6019 13.4585 32.601 17.2979C32.5974 25.2197 26.0998 31.6655 18.1166 31.6655H18.1108C15.5114 31.6641 12.962 30.9715 10.7387 29.6625L10.2096 29.3512L4.72741 30.7773L6.19113 25.4755V25.4757Z" fill="url(#paint1_linear_109_275)"/>
<path d="M13.7609 10.0588C13.4347 9.33943 13.0914 9.32491 12.7812 9.3123C12.5272 9.30145 12.2368 9.30226 11.9467 9.30226C11.6563 9.30226 11.1845 9.41065 10.7857 9.84273C10.3865 10.2752 9.26154 11.3203 9.26154 13.446C9.26154 15.5717 10.8219 17.626 11.0394 17.9146C11.2572 18.2026 14.0517 22.7043 18.4776 24.4361C22.1559 25.8753 22.9044 25.5891 23.7027 25.5169C24.5012 25.445 26.2791 24.472 26.6418 23.4632C27.0048 22.4544 27.0048 21.5897 26.8959 21.409C26.7871 21.229 26.4967 21.1209 26.0613 20.9049C25.6257 20.6888 23.4849 19.6435 23.0859 19.4993C22.6866 19.3553 22.3964 19.2834 22.106 19.716C21.8156 20.1479 20.9818 21.1209 20.7276 21.409C20.4737 21.6978 20.2195 21.7338 19.7842 21.5177C19.3485 21.3009 17.9462 20.8452 16.2825 19.3734C14.988 18.2282 14.1141 16.814 13.8601 16.3813C13.606 15.9494 13.8329 15.7153 14.0512 15.5C14.2468 15.3064 14.4868 14.9955 14.7047 14.7433C14.9218 14.4909 14.9943 14.3109 15.1395 14.0228C15.2848 13.7344 15.2121 13.482 15.1034 13.2659C14.9943 13.0498 14.1481 10.9131 13.7609 10.0588Z" fill="white"/>
</g>
<defs>
<linearGradient id="paint0_linear_109_275" x1="1690.54" y1="3368.27" x2="1690.54" y2="0.604004" gradientUnits="userSpaceOnUse">
<stop stop-color="#1FAF38"/>
<stop offset="1" stop-color="#60D669"/>
</linearGradient>
<linearGradient id="paint1_linear_109_275" x1="1750.54" y1="3488.43" x2="1750.54" y2="0" gradientUnits="userSpaceOnUse">
<stop stop-color="#F9F9F9"/>
<stop offset="1" stop-color="white"/>
</linearGradient>
<clipPath id="clip0_109_275">
<rect width="35" height="35" fill="white" transform="translate(0.543274)"/>
</clipPath>
</defs>
</svg>
